<?xml version="1.0" encoding="utf-8"?>
<!-- Generator: Adobe Illustrator 17.1.0, SVG Export Plug-In . SVG Version: 6.00 Build 0)  -->
<!DOCTYPE svg PUBLIC "-//W3C//DTD SVG 1.1//EN" "http://www.w3.org/Graphics/SVG/1.1/DTD/svg11.dtd">
<svg version="1.1" id="Livello_1" xmlns="http://www.w3.org/2000/svg" xmlns:xlink="http://www.w3.org/1999/xlink" x="0px" y="0px"
	 width="78.6px" height="56.3px" viewBox="0 0 78.6 56.3" enable-background="new 0 0 78.6 56.3" xml:space="preserve">
<g>
	<path fill="#F19B06" d="M72.5,12.3H6.1C2.7,12.3,0,9.6,0,6.2V6.1C0,2.7,2.7,0,6.1,0h66.4c3.4,0,6.1,2.7,6.1,6.1v0.1
		C78.6,9.6,75.8,12.3,72.5,12.3z"/>
	<path fill="#F19B06" d="M72.5,34.3H6.1c-3.4,0-6.1-2.7-6.1-6.1v-0.1C0,24.7,2.7,22,6.1,22h66.4c3.4,0,6.1,2.7,6.1,6.1v0.1
		C78.6,31.6,75.8,34.3,72.5,34.3z"/>
	<path fill="#F19B06" d="M72.5,56.3H6.1c-3.4,0-6.1-2.7-6.1-6.1v-0.1C0,46.7,2.7,44,6.1,44h66.4c3.4,0,6.1,2.7,6.1,6.1v0.1
		C78.6,53.6,75.8,56.3,72.5,56.3z"/>
</g>
</svg>
