<?xml version="1.0" encoding="utf-8"?>
<!-- Generator: Adobe Illustrator 17.1.0, SVG Export Plug-In . SVG Version: 6.00 Build 0)  -->
<!DOCTYPE svg PUBLIC "-//W3C//DTD SVG 1.1//EN" "http://www.w3.org/Graphics/SVG/1.1/DTD/svg11.dtd">
<svg version="1.1" id="Livello_1" xmlns="http://www.w3.org/2000/svg" xmlns:xlink="http://www.w3.org/1999/xlink" x="0px" y="0px"
	 width="234px" height="238px" viewBox="0 0 234 238" enable-background="new 0 0 234 238" xml:space="preserve">
<g>
	<path d="M128,232c-6.3,0-12.7,0-19,0c-0.9-0.3-1.8-0.7-2.8-0.8c-47.4-5-86.9-40-97.3-86.6c-1.2-5.5-2-11.1-3-16.6
		c0-5.7,0-11.3,0-17c0.3-1.1,0.6-2.2,0.8-3.3C13.2,60.8,38.7,29.2,82.9,13C91.5,9.9,101,9,110,7c5.7,0,11.3,0,17,0
		c0.9,0.3,1.9,0.7,2.8,0.8c47.8,5.1,86.1,38.3,97.8,84.8c1.4,5.7,2.3,11.6,3.4,17.5c0,6.3,0,12.7,0,19c-0.3,0.8-0.7,1.5-0.8,2.3
		c-5.6,48.7-39.2,86.6-86.7,97.8C138.4,230.2,133.2,231,128,232z M20,119.3c0,54.2,44,98.5,97.9,98.6c54.6,0.1,98.9-43.8,99-98
		c0.1-54.5-44-98.9-98.2-98.9C64.4,21,20.1,65.1,20,119.3z"/>
	<path d="M55.3,78.8c-0.6-4.6,1.2-8.8,5.2-12.3c1.8-1.5,3.3-3.3,5-4.9c9-8.9,23.4-5.7,27.4,6.3c2,5.8,3.6,11.8,4.8,17.8
		c1.3,6.3-1.2,11.6-6,15.5c-3.4,2.8-3.7,5.5-2.1,9.4c7.3,18.4,20.2,31,38.6,38.1c3.1,1.2,5.5,1.3,7.8-1.6c5.7-7.1,13-8.6,21.5-5.6
		c3.7,1.4,7.7,2.1,11.5,3.2c13,3.9,15.8,17.6,7.5,28.1c-10.1,12.7-22.5,10.1-35,7.8C92.9,172,56.5,129,55.3,78.8z"/>
</g>
</svg>
